{
	"asset":{
		"generator":"Khronos glTF Blender I/O v4.0.44",
		"version":"2.0"
	},
	"extensionsUsed":[
		"KHR_materials_specular",
		"KHR_materials_ior"
	],
	"scene":0,
	"scenes":[
		{
			"name":"Scene",
			"nodes":[
				0,
				1,
				2,
				3,
				4,
				5,
				6,
				7,
				8,
				9,
				10,
				11
			]
		}
	],
	"nodes":[
		{
			"mesh":0,
			"name":"#Concrete_Debris",
			"rotation":[
				-0.0005551893846131861,
				0,
				0,
				1
			],
			"scale":[
				0.29651129245758057,
				0.29651129245758057,
				0.29651129245758057
			],
			"translation":[
				-3.857834815979004,
				1.1561763286590576,
				1.8009809255599976
			]
		},
		{
			"mesh":1,
			"name":"#Concrete_Debris2",
			"rotation":[
				-0.00013500034401658922,
				-0.969985842704773,
				-0.0005385259282775223,
				0.24316073954105377
			],
			"scale":[
				0.29651129245758057,
				0.29651129245758057,
				0.29651129245758057
			],
			"translation":[
				-7.062711715698242,
				1.1561763286590576,
				-0.6397653818130493
			]
		},
		{
			"mesh":2,
			"name":"house"
		},
		{
			"mesh":3,
			"name":"metals"
		},
		{
			"mesh":4,
			"name":"mountain plane",
			"rotation":[
				0,
				-0.8256966471672058,
				0,
				0.5641144514083862
			],
			"scale":[
				1.381025791168213,
				1.381025791168213,
				1.381025791168213
			],
			"translation":[
				-45.13267517089844,
				0.007154010236263275,
				-0.0008105975575745106
			]
		},
		{
			"mesh":5,
			"name":"skybox",
			"scale":[
				162.8057861328125,
				162.8057861328125,
				162.8057861328125
			],
			"translation":[
				-36.74237823486328,
				-0.044705331325531006,
				0.005065415985882282
			]
		},
		{
			"mesh":6,
			"name":"Snowplains",
			"scale":[
				-73.28288269042969,
				-73.28288269042969,
				-73.28288269042969
			],
			"translation":[
				-0.9810433387756348,
				1.1719502210617065,
				0.004254817962646484
			]
		},
		{
			"mesh":7,
			"name":"Electrical box 2",
			"rotation":[
				-0.0312604196369648,
				-0.6969465017318726,
				0.06692706793546677,
				0.713308572769165
			],
			"scale":[
				0.3911764621734619,
				0.3911764919757843,
				0.3911764621734619
			],
			"translation":[
				-1.3041030168533325,
				1.4783117771148682,
				-2.472414493560791
			]
		},
		{
			"mesh":8,
			"name":"maul axe",
			"rotation":[
				-0.048608049750328064,
				0.4391300082206726,
				-0.8790411949157715,
				0.1791338473558426
			],
			"scale":[
				0.026710230857133865,
				0.0574369877576828,
				0.062107522040605545
			],
			"translation":[
				-5.782455921173096,
				1.4677305221557617,
				0.8019238114356995
			]
		},
		{
			"mesh":9,
			"name":"stump",
			"rotation":[
				0.4913855791091919,
				-0.46420952677726746,
				0.43961280584335327,
				0.5914307236671448
			],
			"translation":[
				-5.8624162673950195,
				1.0583693981170654,
				0.9430925846099854
			]
		},
		{
			"mesh":10,
			"name":"dogsled",
			"rotation":[
				0,
				-0.4158981740474701,
				0,
				0.9094113111495972
			],
			"scale":[
				0.8495672941207886,
				0.8495672941207886,
				0.8495672941207886
			],
			"translation":[
				-1.2294647693634033,
				1.2743374109268188,
				-2.9181971549987793
			]
		},
		{
			"mesh":11,
			"name":"snowpoles",
			"rotation":[
				-0.0009392897482030094,
				-0.27264833450317383,
				-0.03758828341960907,
				0.9613787531852722
			],
			"scale":[
				0.009434149600565434,
				0.4763757586479187,
				0.009434150531888008
			],
			"translation":[
				-22.503929138183594,
				1.5621641874313354,
				0.8718356490135193
			]
		}
	],
	"materials":[
		{
			"doubleSided":true,
			"extensions":{
				"KHR_materials_specular":{
					"specularFactor":0
				},
				"KHR_materials_ior":{
					"ior":1.4500000476837158
				}
			},
			"name":"Concrete_Debris",
			"pbrMetallicRoughness":{
				"baseColorTexture":{
					"index":0,
					"texCoord":1
				},
				"metallicFactor":0,
				"roughnessFactor":0.5
			}
		},
		{
			"doubleSided":true,
			"name":"main",
			"pbrMetallicRoughness":{
				"baseColorTexture":{
					"index":1,
					"texCoord":1
				},
				"metallicFactor":0.1340908408164978
			}
		},
		{
			"doubleSided":true,
			"name":"Pipe7",
			"pbrMetallicRoughness":{
				"baseColorTexture":{
					"index":2,
					"texCoord":1
				},
				"metallicFactor":0.163690447807312,
				"roughnessFactor":0.5
			}
		},
		{
			"alphaMode":"BLEND",
			"doubleSided":true,
			"name":"mountain plane",
			"pbrMetallicRoughness":{
				"baseColorTexture":{
					"index":3
				},
				"metallicFactor":0,
				"roughnessFactor":0.5
			}
		},
		{
			"doubleSided":true,
			"name":"skybox",
			"pbrMetallicRoughness":{
				"baseColorTexture":{
					"index":4
				},
				"metallicFactor":0,
				"roughnessFactor":0.5
			}
		},
		{
			"doubleSided":true,
			"name":"snow",
			"pbrMetallicRoughness":{
				"baseColorTexture":{
					"index":5,
					"texCoord":1
				},
				"metallicFactor":0,
				"roughnessFactor":0.5
			}
		},
		{
			"alphaMode":"BLEND",
			"doubleSided":true,
			"extensions":{
				"KHR_materials_specular":{
					"specularFactor":0.26818183064460754
				},
				"KHR_materials_ior":{
					"ior":1.4500000476837158
				}
			},
			"name":"tings1 metalic",
			"pbrMetallicRoughness":{
				"baseColorTexture":{
					"index":6,
					"texCoord":1
				},
				"metallicFactor":0.5090909004211426,
				"roughnessFactor":0.5
			}
		},
		{
			"doubleSided":true,
			"name":"Pipe7.001",
			"pbrMetallicRoughness":{
				"baseColorTexture":{
					"index":7
				},
				"metallicFactor":0.163690447807312,
				"roughnessFactor":0.5
			}
		},
		{
			"doubleSided":true,
			"name":"main.001",
			"pbrMetallicRoughness":{
				"baseColorTexture":{
					"index":8
				},
				"metallicFactor":0.1340908408164978
			}
		},
		{
			"doubleSided":true,
			"extensions":{
				"KHR_materials_specular":{
					"specularFactor":0
				},
				"KHR_materials_ior":{
					"ior":1.4500000476837158
				}
			},
			"name":"poly_0",
			"pbrMetallicRoughness":{
				"baseColorTexture":{
					"index":9
				},
				"metallicFactor":0,
				"roughnessFactor":0.9683772325515747
			}
		}
	],
	"meshes":[
		{
			"name":"textured.007",
			"primitives":[
				{
					"attributes":{
						"POSITION":0,
						"NORMAL":1,
						"TEXCOORD_0":2,
						"TEXCOORD_1":3
					},
					"indices":4,
					"material":0
				}
			]
		},
		{
			"name":"textured.003",
			"primitives":[
				{
					"attributes":{
						"POSITION":5,
						"NORMAL":6,
						"TEXCOORD_0":7,
						"TEXCOORD_1":8
					},
					"indices":9,
					"material":0
				}
			]
		},
		{
			"name":"cable.001",
			"primitives":[
				{
					"attributes":{
						"POSITION":10,
						"NORMAL":11,
						"TEXCOORD_0":12,
						"TEXCOORD_1":13
					},
					"indices":14,
					"material":1
				}
			]
		},
		{
			"name":"Cylinder.001",
			"primitives":[
				{
					"attributes":{
						"POSITION":15,
						"NORMAL":16,
						"TEXCOORD_0":17,
						"TEXCOORD_1":18
					},
					"indices":19,
					"material":2
				}
			]
		},
		{
			"name":"mountain plane",
			"primitives":[
				{
					"attributes":{
						"POSITION":20,
						"NORMAL":21,
						"TEXCOORD_0":22
					},
					"indices":23,
					"material":3
				}
			]
		},
		{
			"name":"Sphere",
			"primitives":[
				{
					"attributes":{
						"POSITION":24,
						"NORMAL":25,
						"TEXCOORD_0":26
					},
					"indices":27,
					"material":4
				}
			]
		},
		{
			"name":"Plane.002",
			"primitives":[
				{
					"attributes":{
						"POSITION":28,
						"NORMAL":29,
						"TEXCOORD_0":30,
						"TEXCOORD_1":31
					},
					"indices":32,
					"material":5
				}
			]
		},
		{
			"name":"Cube.003",
			"primitives":[
				{
					"attributes":{
						"POSITION":33,
						"NORMAL":34,
						"TEXCOORD_0":35,
						"TEXCOORD_1":36
					},
					"indices":37,
					"material":6
				}
			]
		},
		{
			"name":"Cube",
			"primitives":[
				{
					"attributes":{
						"POSITION":38,
						"NORMAL":39,
						"TEXCOORD_0":40
					},
					"indices":41,
					"material":7
				},
				{
					"attributes":{
						"POSITION":42,
						"NORMAL":43,
						"TEXCOORD_0":44
					},
					"indices":45,
					"material":8
				}
			]
		},
		{
			"name":"poly",
			"primitives":[
				{
					"attributes":{
						"POSITION":46,
						"NORMAL":47,
						"TEXCOORD_0":48,
						"TEXCOORD_1":49
					},
					"indices":50,
					"material":9
				}
			]
		},
		{
			"name":"Cube.006",
			"primitives":[
				{
					"attributes":{
						"POSITION":51,
						"NORMAL":52,
						"TEXCOORD_0":53
					},
					"indices":54,
					"material":8
				}
			]
		},
		{
			"name":"Cylinder.003",
			"primitives":[
				{
					"attributes":{
						"POSITION":55,
						"NORMAL":56,
						"TEXCOORD_0":57
					},
					"indices":58,
					"material":7
				}
			]
		}
	],
	"textures":[
		{
			"sampler":0,
			"source":0
		},
		{
			"sampler":0,
			"source":1
		},
		{
			"sampler":0,
			"source":2
		},
		{
			"sampler":0,
			"source":3
		},
		{
			"sampler":0,
			"source":4
		},
		{
			"sampler":0,
			"source":5
		},
		{
			"sampler":0,
			"source":6
		},
		{
			"sampler":0,
			"source":2
		},
		{
			"sampler":0,
			"source":1
		},
		{
			"sampler":0,
			"source":7
		}
	],
	"images":[
		{
			"mimeType":"image/png",
			"name":"DEBRISBAKED",
			"uri":"textures/DEBRISBAKED.png"
		},
		{
			"mimeType":"image/png",
			"name":"HOUSEBAKE",
			"uri":"textures/HOUSEBAKE.png"
		},
		{
			"mimeType":"image/png",
			"name":"METALBAKED",
			"uri":"textures/METALBAKED.png"
		},
		{
			"mimeType":"image/png",
			"name":"mountain plane",
			"uri":"textures/mountain%20plane.png"
		},
		{
			"mimeType":"image/png",
			"name":"skydome",
			"uri":"textures/skydome.png"
		},
		{
			"mimeType":"image/png",
			"name":"SNOWBAKED",
			"uri":"textures/SNOWBAKED.png"
		},
		{
			"mimeType":"image/png",
			"name":"EBOXBAKED",
			"uri":"textures/EBOXBAKED.png"
		},
		{
			"mimeType":"image/jpeg",
			"name":"poly_0_aM0c7KKc",
			"uri":"textures/poly_0_aM0c7KKc.jpg"
		}
	],
	"accessors":[
		{
			"bufferView":0,
			"componentType":5126,
			"count":9296,
			"max":[
				4.205899238586426,
				0.6505267024040222,
				-2.500624656677246
			],
			"min":[
				-2.1839685440063477,
				-0.059185490012168884,
				-12.163616180419922
			],
			"type":"VEC3"
		},
		{
			"bufferView":1,
			"componentType":5126,
			"count":9296,
			"type":"VEC3"
		},
		{
			"bufferView":2,
			"componentType":5126,
			"count":9296,
			"type":"VEC2"
		},
		{
			"bufferView":3,
			"componentType":5126,
			"count":9296,
			"type":"VEC2"
		},
		{
			"bufferView":4,
			"componentType":5123,
			"count":15831,
			"type":"SCALAR"
		},
		{
			"bufferView":5,
			"componentType":5126,
			"count":8691,
			"max":[
				9.171717643737793,
				0.5629960298538208,
				5.030909538269043
			],
			"min":[
				-3.649608612060547,
				-0.0207924023270607,
				-6.856529235839844
			],
			"type":"VEC3"
		},
		{
			"bufferView":6,
			"componentType":5126,
			"count":8691,
			"type":"VEC3"
		},
		{
			"bufferView":7,
			"componentType":5126,
			"count":8691,
			"type":"VEC2"
		},
		{
			"bufferView":8,
			"componentType":5126,
			"count":8691,
			"type":"VEC2"
		},
		{
			"bufferView":9,
			"componentType":5123,
			"count":14850,
			"type":"SCALAR"
		},
		{
			"bufferView":10,
			"componentType":5126,
			"count":4613,
			"max":[
				0.3921844959259033,
				5.627528190612793,
				1.5850567817687988
			],
			"min":[
				-4.000553131103516,
				0.9496622085571289,
				-2.7303993701934814
			],
			"type":"VEC3"
		},
		{
			"bufferView":11,
			"componentType":5126,
			"count":4613,
			"type":"VEC3"
		},
		{
			"bufferView":12,
			"componentType":5126,
			"count":4613,
			"type":"VEC2"
		},
		{
			"bufferView":13,
			"componentType":5126,
			"count":4613,
			"type":"VEC2"
		},
		{
			"bufferView":14,
			"componentType":5123,
			"count":9336,
			"type":"SCALAR"
		},
		{
			"bufferView":15,
			"componentType":5126,
			"count":11607,
			"max":[
				0.5391845703125,
				6.284950256347656,
				1.2392005920410156
			],
			"min":[
				-4.11297607421875,
				1.0601195096969604,
				-2.8272998332977295
			],
			"type":"VEC3"
		},
		{
			"bufferView":16,
			"componentType":5126,
			"count":11607,
			"type":"VEC3"
		},
		{
			"bufferView":17,
			"componentType":5126,
			"count":11607,
			"type":"VEC2"
		},
		{
			"bufferView":18,
			"componentType":5126,
			"count":11607,
			"type":"VEC2"
		},
		{
			"bufferView":19,
			"componentType":5123,
			"count":33339,
			"type":"SCALAR"
		},
		{
			"bufferView":20,
			"componentType":5126,
			"count":44,
			"max":[
				102.43856811523438,
				82.3572769165039,
				103.75557708740234
			],
			"min":[
				-107.40200805664062,
				-38.40237045288086,
				-107.14654541015625
			],
			"type":"VEC3"
		},
		{
			"bufferView":21,
			"componentType":5126,
			"count":44,
			"type":"VEC3"
		},
		{
			"bufferView":22,
			"componentType":5126,
			"count":44,
			"type":"VEC2"
		},
		{
			"bufferView":23,
			"componentType":5123,
			"count":66,
			"type":"SCALAR"
		},
		{
			"bufferView":24,
			"componentType":5126,
			"count":329,
			"max":[
				0.9999997019767761,
				1,
				0.9999993443489075
			],
			"min":[
				-0.9999990463256836,
				-0.3046780824661255,
				-1
			],
			"type":"VEC3"
		},
		{
			"bufferView":25,
			"componentType":5126,
			"count":329,
			"type":"VEC3"
		},
		{
			"bufferView":26,
			"componentType":5126,
			"count":329,
			"type":"VEC2"
		},
		{
			"bufferView":27,
			"componentType":5123,
			"count":1632,
			"type":"SCALAR"
		},
		{
			"bufferView":28,
			"componentType":5126,
			"count":2640,
			"max":[
				0.9166667461395264,
				0,
				0.9166667461395264
			],
			"min":[
				-0.9166667461395264,
				-0.03413955494761467,
				-0.9166667461395264
			],
			"type":"VEC3"
		},
		{
			"bufferView":29,
			"componentType":5126,
			"count":2640,
			"type":"VEC3"
		},
		{
			"bufferView":30,
			"componentType":5126,
			"count":2640,
			"type":"VEC2"
		},
		{
			"bufferView":31,
			"componentType":5126,
			"count":2640,
			"type":"VEC2"
		},
		{
			"bufferView":32,
			"componentType":5123,
			"count":6144,
			"type":"SCALAR"
		},
		{
			"bufferView":33,
			"componentType":5126,
			"count":4423,
			"max":[
				0.6091256141662598,
				1.4811952114105225,
				0.3299465775489807
			],
			"min":[
				-0.4210929870605469,
				-1.4452176094055176,
				-0.3362441062927246
			],
			"type":"VEC3"
		},
		{
			"bufferView":34,
			"componentType":5126,
			"count":4423,
			"type":"VEC3"
		},
		{
			"bufferView":35,
			"componentType":5126,
			"count":4423,
			"type":"VEC2"
		},
		{
			"bufferView":36,
			"componentType":5126,
			"count":4423,
			"type":"VEC2"
		},
		{
			"bufferView":37,
			"componentType":5123,
			"count":7821,
			"type":"SCALAR"
		},
		{
			"bufferView":38,
			"componentType":5126,
			"count":136,
			"max":[
				1.000000238418579,
				0.9516684412956238,
				2.745208740234375
			],
			"min":[
				-1.000000238418579,
				-1.2363722324371338,
				-1.3666375875473022
			],
			"type":"VEC3"
		},
		{
			"bufferView":39,
			"componentType":5126,
			"count":136,
			"type":"VEC3"
		},
		{
			"bufferView":40,
			"componentType":5126,
			"count":136,
			"type":"VEC2"
		},
		{
			"bufferView":41,
			"componentType":5123,
			"count":204,
			"type":"SCALAR"
		},
		{
			"bufferView":42,
			"componentType":5126,
			"count":56,
			"max":[
				0.5563881397247314,
				0.6827172040939331,
				0.34293845295906067
			],
			"min":[
				-0.5482663512229919,
				-15.264403343200684,
				-0.34294605255126953
			],
			"type":"VEC3"
		},
		{
			"bufferView":43,
			"componentType":5126,
			"count":56,
			"type":"VEC3"
		},
		{
			"bufferView":44,
			"componentType":5126,
			"count":56,
			"type":"VEC2"
		},
		{
			"bufferView":45,
			"componentType":5123,
			"count":84,
			"type":"SCALAR"
		},
		{
			"bufferView":46,
			"componentType":5126,
			"count":10373,
			"max":[
				0.34621381759643555,
				0.31095609068870544,
				-0.014876874163746834
			],
			"min":[
				-0.2521674931049347,
				-0.5147433876991272,
				-0.4074311852455139
			],
			"type":"VEC3"
		},
		{
			"bufferView":47,
			"componentType":5126,
			"count":10373,
			"type":"VEC3"
		},
		{
			"bufferView":48,
			"componentType":5126,
			"count":10373,
			"type":"VEC2"
		},
		{
			"bufferView":49,
			"componentType":5126,
			"count":10373,
			"type":"VEC2"
		},
		{
			"bufferView":50,
			"componentType":5123,
			"count":10377,
			"type":"SCALAR"
		},
		{
			"bufferView":51,
			"componentType":5126,
			"count":864,
			"max":[
				0.25396203994750977,
				0.5936145782470703,
				0.7369985580444336
			],
			"min":[
				-0.25364208221435547,
				-0.12383413314819336,
				-1.0158642530441284
			],
			"type":"VEC3"
		},
		{
			"bufferView":52,
			"componentType":5126,
			"count":864,
			"type":"VEC3"
		},
		{
			"bufferView":53,
			"componentType":5126,
			"count":864,
			"type":"VEC2"
		},
		{
			"bufferView":54,
			"componentType":5123,
			"count":1380,
			"type":"SCALAR"
		},
		{
			"bufferView":55,
			"componentType":5126,
			"count":360,
			"max":[
				1073.0897216796875,
				2.7924938201904297,
				1
			],
			"min":[
				-1,
				-1,
				-650.588623046875
			],
			"type":"VEC3"
		},
		{
			"bufferView":56,
			"componentType":5126,
			"count":360,
			"type":"VEC3"
		},
		{
			"bufferView":57,
			"componentType":5126,
			"count":360,
			"type":"VEC2"
		},
		{
			"bufferView":58,
			"componentType":5123,
			"count":684,
			"type":"SCALAR"
		}
	],
	"bufferViews":[
		{
			"buffer":0,
			"byteLength":111552,
			"byteOffset":0,
			"target":34962
		},
		{
			"buffer":0,
			"byteLength":111552,
			"byteOffset":111552,
			"target":34962
		},
		{
			"buffer":0,
			"byteLength":74368,
			"byteOffset":223104,
			"target":34962
		},
		{
			"buffer":0,
			"byteLength":74368,
			"byteOffset":297472,
			"target":34962
		},
		{
			"buffer":0,
			"byteLength":31662,
			"byteOffset":371840,
			"target":34963
		},
		{
			"buffer":0,
			"byteLength":104292,
			"byteOffset":403504,
			"target":34962
		},
		{
			"buffer":0,
			"byteLength":104292,
			"byteOffset":507796,
			"target":34962
		},
		{
			"buffer":0,
			"byteLength":69528,
			"byteOffset":612088,
			"target":34962
		},
		{
			"buffer":0,
			"byteLength":69528,
			"byteOffset":681616,
			"target":34962
		},
		{
			"buffer":0,
			"byteLength":29700,
			"byteOffset":751144,
			"target":34963
		},
		{
			"buffer":0,
			"byteLength":55356,
			"byteOffset":780844,
			"target":34962
		},
		{
			"buffer":0,
			"byteLength":55356,
			"byteOffset":836200,
			"target":34962
		},
		{
			"buffer":0,
			"byteLength":36904,
			"byteOffset":891556,
			"target":34962
		},
		{
			"buffer":0,
			"byteLength":36904,
			"byteOffset":928460,
			"target":34962
		},
		{
			"buffer":0,
			"byteLength":18672,
			"byteOffset":965364,
			"target":34963
		},
		{
			"buffer":0,
			"byteLength":139284,
			"byteOffset":984036,
			"target":34962
		},
		{
			"buffer":0,
			"byteLength":139284,
			"byteOffset":1123320,
			"target":34962
		},
		{
			"buffer":0,
			"byteLength":92856,
			"byteOffset":1262604,
			"target":34962
		},
		{
			"buffer":0,
			"byteLength":92856,
			"byteOffset":1355460,
			"target":34962
		},
		{
			"buffer":0,
			"byteLength":66678,
			"byteOffset":1448316,
			"target":34963
		},
		{
			"buffer":0,
			"byteLength":528,
			"byteOffset":1514996,
			"target":34962
		},
		{
			"buffer":0,
			"byteLength":528,
			"byteOffset":1515524,
			"target":34962
		},
		{
			"buffer":0,
			"byteLength":352,
			"byteOffset":1516052,
			"target":34962
		},
		{
			"buffer":0,
			"byteLength":132,
			"byteOffset":1516404,
			"target":34963
		},
		{
			"buffer":0,
			"byteLength":3948,
			"byteOffset":1516536,
			"target":34962
		},
		{
			"buffer":0,
			"byteLength":3948,
			"byteOffset":1520484,
			"target":34962
		},
		{
			"buffer":0,
			"byteLength":2632,
			"byteOffset":1524432,
			"target":34962
		},
		{
			"buffer":0,
			"byteLength":3264,
			"byteOffset":1527064,
			"target":34963
		},
		{
			"buffer":0,
			"byteLength":31680,
			"byteOffset":1530328,
			"target":34962
		},
		{
			"buffer":0,
			"byteLength":31680,
			"byteOffset":1562008,
			"target":34962
		},
		{
			"buffer":0,
			"byteLength":21120,
			"byteOffset":1593688,
			"target":34962
		},
		{
			"buffer":0,
			"byteLength":21120,
			"byteOffset":1614808,
			"target":34962
		},
		{
			"buffer":0,
			"byteLength":12288,
			"byteOffset":1635928,
			"target":34963
		},
		{
			"buffer":0,
			"byteLength":53076,
			"byteOffset":1648216,
			"target":34962
		},
		{
			"buffer":0,
			"byteLength":53076,
			"byteOffset":1701292,
			"target":34962
		},
		{
			"buffer":0,
			"byteLength":35384,
			"byteOffset":1754368,
			"target":34962
		},
		{
			"buffer":0,
			"byteLength":35384,
			"byteOffset":1789752,
			"target":34962
		},
		{
			"buffer":0,
			"byteLength":15642,
			"byteOffset":1825136,
			"target":34963
		},
		{
			"buffer":0,
			"byteLength":1632,
			"byteOffset":1840780,
			"target":34962
		},
		{
			"buffer":0,
			"byteLength":1632,
			"byteOffset":1842412,
			"target":34962
		},
		{
			"buffer":0,
			"byteLength":1088,
			"byteOffset":1844044,
			"target":34962
		},
		{
			"buffer":0,
			"byteLength":408,
			"byteOffset":1845132,
			"target":34963
		},
		{
			"buffer":0,
			"byteLength":672,
			"byteOffset":1845540,
			"target":34962
		},
		{
			"buffer":0,
			"byteLength":672,
			"byteOffset":1846212,
			"target":34962
		},
		{
			"buffer":0,
			"byteLength":448,
			"byteOffset":1846884,
			"target":34962
		},
		{
			"buffer":0,
			"byteLength":168,
			"byteOffset":1847332,
			"target":34963
		},
		{
			"buffer":0,
			"byteLength":124476,
			"byteOffset":1847500,
			"target":34962
		},
		{
			"buffer":0,
			"byteLength":124476,
			"byteOffset":1971976,
			"target":34962
		},
		{
			"buffer":0,
			"byteLength":82984,
			"byteOffset":2096452,
			"target":34962
		},
		{
			"buffer":0,
			"byteLength":82984,
			"byteOffset":2179436,
			"target":34962
		},
		{
			"buffer":0,
			"byteLength":20754,
			"byteOffset":2262420,
			"target":34963
		},
		{
			"buffer":0,
			"byteLength":10368,
			"byteOffset":2283176,
			"target":34962
		},
		{
			"buffer":0,
			"byteLength":10368,
			"byteOffset":2293544,
			"target":34962
		},
		{
			"buffer":0,
			"byteLength":6912,
			"byteOffset":2303912,
			"target":34962
		},
		{
			"buffer":0,
			"byteLength":2760,
			"byteOffset":2310824,
			"target":34963
		},
		{
			"buffer":0,
			"byteLength":4320,
			"byteOffset":2313584,
			"target":34962
		},
		{
			"buffer":0,
			"byteLength":4320,
			"byteOffset":2317904,
			"target":34962
		},
		{
			"buffer":0,
			"byteLength":2880,
			"byteOffset":2322224,
			"target":34962
		},
		{
			"buffer":0,
			"byteLength":1368,
			"byteOffset":2325104,
			"target":34963
		}
	],
	"samplers":[
		{
			"magFilter":9729,
			"minFilter":9987
		}
	],
	"buffers":[
		{
			"byteLength":2326472,
			"uri":"cabin.bin"
		}
	]
}
