{
	"asset":{
		"generator":"Khronos glTF Blender I/O v4.0.44",
		"version":"2.0"
	},
	"scene":0,
	"scenes":[
		{
			"name":"Scene",
			"nodes":[
				0,
				1
			]
		}
	],
	"nodes":[
		{
			"mesh":0,
			"name":"Mesh_0",
			"rotation":[
				0,
				0,
				0.003524245461449027,
				0.9999938011169434
			],
			"translation":[
				0,
				-0.0008765438687987626,
				0
			]
		},
		{
			"mesh":1,
			"name":"Plane",
			"scale":[
				0.432925820350647,
				0.432925820350647,
				0.432925820350647
			],
			"translation":[
				0,
				0.007153884042054415,
				0
			]
		}
	],
	"materials":[
		{
			"doubleSided":true,
			"name":"Material_0",
			"normalTexture":{
				"index":0
			},
			"occlusionTexture":{
				"index":1
			},
			"pbrMetallicRoughness":{
				"baseColorTexture":{
					"index":2
				},
				"metallicFactor":0
			}
		}
	],
	"meshes":[
		{
			"name":"Mesh_0",
			"primitives":[
				{
					"attributes":{
						"POSITION":0,
						"NORMAL":1,
						"TEXCOORD_0":2
					},
					"indices":3,
					"material":0
				}
			]
		},
		{
			"name":"Plane",
			"primitives":[
				{
					"attributes":{
						"POSITION":4,
						"NORMAL":5,
						"TEXCOORD_0":6
					},
					"indices":7,
					"material":0
				}
			]
		}
	],
	"textures":[
		{
			"sampler":0,
			"source":0
		},
		{
			"sampler":0,
			"source":1
		},
		{
			"sampler":0,
			"source":2
		}
	],
	"images":[
		{
			"mimeType":"image/jpeg",
			"name":"Image_0",
			"uri":"textures/Image_0.jpg"
		},
		{
			"mimeType":"image/jpeg",
			"name":"Image_1",
			"uri":"textures/Image_1.jpg"
		},
		{
			"mimeType":"image/png",
			"name":"Image_2",
			"uri":"textures/Image_2.png"
		}
	],
	"accessors":[
		{
			"bufferView":0,
			"componentType":5126,
			"count":39795,
			"max":[
				0.04007145017385483,
				0.11019224673509598,
				0.0067937979474663734
			],
			"min":[
				-0.06238224357366562,
				0.004343713168054819,
				-0.050797753036022186
			],
			"type":"VEC3"
		},
		{
			"bufferView":1,
			"componentType":5126,
			"count":39795,
			"type":"VEC3"
		},
		{
			"bufferView":2,
			"componentType":5126,
			"count":39795,
			"type":"VEC2"
		},
		{
			"bufferView":3,
			"componentType":5123,
			"count":62265,
			"type":"SCALAR"
		},
		{
			"bufferView":4,
			"componentType":5126,
			"count":36,
			"max":[
				1,
				0,
				1
			],
			"min":[
				-1,
				0,
				-1
			],
			"type":"VEC3"
		},
		{
			"bufferView":5,
			"componentType":5126,
			"count":36,
			"type":"VEC3"
		},
		{
			"bufferView":6,
			"componentType":5126,
			"count":36,
			"type":"VEC2"
		},
		{
			"bufferView":7,
			"componentType":5123,
			"count":102,
			"type":"SCALAR"
		}
	],
	"bufferViews":[
		{
			"buffer":0,
			"byteLength":477540,
			"byteOffset":0,
			"target":34962
		},
		{
			"buffer":0,
			"byteLength":477540,
			"byteOffset":477540,
			"target":34962
		},
		{
			"buffer":0,
			"byteLength":318360,
			"byteOffset":955080,
			"target":34962
		},
		{
			"buffer":0,
			"byteLength":124530,
			"byteOffset":1273440,
			"target":34963
		},
		{
			"buffer":0,
			"byteLength":432,
			"byteOffset":1397972,
			"target":34962
		},
		{
			"buffer":0,
			"byteLength":432,
			"byteOffset":1398404,
			"target":34962
		},
		{
			"buffer":0,
			"byteLength":288,
			"byteOffset":1398836,
			"target":34962
		},
		{
			"buffer":0,
			"byteLength":204,
			"byteOffset":1399124,
			"target":34963
		}
	],
	"samplers":[
		{
			"magFilter":9729,
			"minFilter":9987
		}
	],
	"buffers":[
		{
			"byteLength":1399328,
			"uri":"pika.bin"
		}
	]
}
