{
	"asset":{
		"generator":"Khronos glTF Blender I/O v4.0.44",
		"version":"2.0"
	},
	"scene":0,
	"scenes":[
		{
			"name":"Scene",
			"nodes":[
				0
			]
		}
	],
	"nodes":[
		{
			"mesh":0,
			"name":"Mesh_0.001",
			"rotation":[
				0.12519319355487823,
				0.09449662268161774,
				-0.1974111646413803,
				0.9676910042762756
			],
			"scale":[
				1.184530258178711,
				1.184530258178711,
				1.184530258178711
			],
			"translation":[
				-0.10349094867706299,
				-0.1671842634677887,
				-0.04685373604297638
			]
		}
	],
	"materials":[
		{
			"name":"Material_0",
			"normalTexture":{
				"index":0
			},
			"occlusionTexture":{
				"index":1
			},
			"pbrMetallicRoughness":{
				"baseColorTexture":{
					"index":2
				},
				"metallicFactor":0
			}
		}
	],
	"meshes":[
		{
			"name":"Mesh_0.001",
			"primitives":[
				{
					"attributes":{
						"POSITION":0,
						"NORMAL":1,
						"TEXCOORD_0":2
					},
					"indices":3,
					"material":0
				}
			]
		}
	],
	"textures":[
		{
			"sampler":0,
			"source":0
		},
		{
			"sampler":0,
			"source":1
		},
		{
			"sampler":0,
			"source":2
		}
	],
	"images":[
		{
			"mimeType":"image/jpeg",
			"name":"Image_0",
			"uri":"textures/Image_0.jpg"
		},
		{
			"mimeType":"image/jpeg",
			"name":"Image_1",
			"uri":"textures/Image_1.jpg"
		},
		{
			"mimeType":"image/jpeg",
			"name":"Image_2",
			"uri":"textures/Image_2.jpg"
		}
	],
	"accessors":[
		{
			"bufferView":0,
			"componentType":5126,
			"count":16544,
			"max":[
				0.05850180238485336,
				0.33099475502967834,
				0.04976915568113327
			],
			"min":[
				-0.06550733000040054,
				0.15420617163181305,
				-0.05657147988677025
			],
			"type":"VEC3"
		},
		{
			"bufferView":1,
			"componentType":5126,
			"count":16544,
			"type":"VEC3"
		},
		{
			"bufferView":2,
			"componentType":5126,
			"count":16544,
			"type":"VEC2"
		},
		{
			"bufferView":3,
			"componentType":5123,
			"count":16554,
			"type":"SCALAR"
		}
	],
	"bufferViews":[
		{
			"buffer":0,
			"byteLength":198528,
			"byteOffset":0,
			"target":34962
		},
		{
			"buffer":0,
			"byteLength":198528,
			"byteOffset":198528,
			"target":34962
		},
		{
			"buffer":0,
			"byteLength":132352,
			"byteOffset":397056,
			"target":34962
		},
		{
			"buffer":0,
			"byteLength":33108,
			"byteOffset":529408,
			"target":34963
		}
	],
	"samplers":[
		{
			"magFilter":9729,
			"minFilter":9987
		}
	],
	"buffers":[
		{
			"byteLength":562516,
			"uri":"sunfish.bin"
		}
	]
}
