{
	"asset":{
		"generator":"Khronos glTF Blender I/O v4.0.44",
		"version":"2.0"
	},
	"scene":0,
	"scenes":[
		{
			"name":"Scene",
			"nodes":[
				0,
				1,
				2
			]
		}
	],
	"nodes":[
		{
			"mesh":0,
			"name":"Mesh_0.001",
			"rotation":[
				0,
				0.0931219607591629,
				0,
				0.9956547617912292
			],
			"translation":[
				0.057402536273002625,
				0.0009040911681950092,
				0.005163087509572506
			]
		},
		{
			"mesh":1,
			"name":"Mesh_0"
		},
		{
			"mesh":2,
			"name":"Plane",
			"scale":[
				0.432925820350647,
				0.432925820350647,
				0.432925820350647
			],
			"translation":[
				0,
				0.007153884042054415,
				0
			]
		}
	],
	"materials":[
		{
			"name":"Material_0.001",
			"normalTexture":{
				"index":0
			},
			"occlusionTexture":{
				"index":1
			},
			"pbrMetallicRoughness":{
				"baseColorTexture":{
					"index":2
				},
				"metallicFactor":0
			}
		},
		{
			"name":"Material_0.003",
			"normalTexture":{
				"index":3
			},
			"occlusionTexture":{
				"index":4
			},
			"pbrMetallicRoughness":{
				"baseColorTexture":{
					"index":5
				},
				"metallicFactor":0
			}
		},
		{
			"doubleSided":true,
			"name":"Material_0",
			"normalTexture":{
				"index":6
			},
			"occlusionTexture":{
				"index":7
			},
			"pbrMetallicRoughness":{
				"baseColorTexture":{
					"index":8
				},
				"metallicFactor":0
			}
		}
	],
	"meshes":[
		{
			"name":"Mesh_0.001",
			"primitives":[
				{
					"attributes":{
						"POSITION":0,
						"NORMAL":1,
						"TEXCOORD_0":2
					},
					"indices":3,
					"material":0
				},
				{
					"attributes":{
						"POSITION":4,
						"NORMAL":5,
						"TEXCOORD_0":6
					},
					"indices":7,
					"material":1
				}
			]
		},
		{
			"name":"Mesh_0",
			"primitives":[
				{
					"attributes":{
						"POSITION":8,
						"NORMAL":9,
						"TEXCOORD_0":10
					},
					"indices":11,
					"material":1
				}
			]
		},
		{
			"name":"Plane",
			"primitives":[
				{
					"attributes":{
						"POSITION":12,
						"NORMAL":13,
						"TEXCOORD_0":14
					},
					"indices":15,
					"material":2
				}
			]
		}
	],
	"textures":[
		{
			"sampler":0,
			"source":0
		},
		{
			"sampler":0,
			"source":1
		},
		{
			"sampler":0,
			"source":2
		},
		{
			"sampler":0,
			"source":3
		},
		{
			"sampler":0,
			"source":4
		},
		{
			"sampler":0,
			"source":5
		},
		{
			"sampler":0,
			"source":6
		},
		{
			"sampler":0,
			"source":7
		},
		{
			"sampler":0,
			"source":8
		}
	],
	"images":[
		{
			"mimeType":"image/jpeg",
			"name":"Image_0",
			"uri":"textures/Image_0.jpg"
		},
		{
			"mimeType":"image/jpeg",
			"name":"Image_1",
			"uri":"textures/Image_1.jpg"
		},
		{
			"mimeType":"image/jpeg",
			"name":"Image_2",
			"uri":"textures/Image_2.jpg"
		},
		{
			"mimeType":"image/jpeg",
			"name":"Image_0",
			"uri":"textures/Image_0-1.jpg"
		},
		{
			"mimeType":"image/jpeg",
			"name":"Image_1",
			"uri":"textures/Image_1-1.jpg"
		},
		{
			"mimeType":"image/png",
			"name":"Image_2",
			"uri":"textures/Image_2.png"
		},
		{
			"mimeType":"image/jpeg",
			"name":"Image_0",
			"uri":"textures/Image_0-2.jpg"
		},
		{
			"mimeType":"image/jpeg",
			"name":"Image_1",
			"uri":"textures/Image_1-2.jpg"
		},
		{
			"mimeType":"image/png",
			"name":"Image_2",
			"uri":"textures/Image_2-1.png"
		}
	],
	"accessors":[
		{
			"bufferView":0,
			"componentType":5126,
			"count":2912,
			"max":[
				0.038263000547885895,
				0.06435791403055191,
				0.03522183373570442
			],
			"min":[
				0.00997341237962246,
				0.04051308333873749,
				-0.010103900916874409
			],
			"type":"VEC3"
		},
		{
			"bufferView":1,
			"componentType":5126,
			"count":2912,
			"type":"VEC3"
		},
		{
			"bufferView":2,
			"componentType":5126,
			"count":2912,
			"type":"VEC2"
		},
		{
			"bufferView":3,
			"componentType":5123,
			"count":5268,
			"type":"SCALAR"
		},
		{
			"bufferView":4,
			"componentType":5126,
			"count":179,
			"max":[
				0.030920475721359253,
				0.06591757386922836,
				-0.0004800548776984215
			],
			"min":[
				0.020731613039970398,
				0.054023075848817825,
				-0.010492503643035889
			],
			"type":"VEC3"
		},
		{
			"bufferView":5,
			"componentType":5126,
			"count":179,
			"type":"VEC3"
		},
		{
			"bufferView":6,
			"componentType":5126,
			"count":179,
			"type":"VEC2"
		},
		{
			"bufferView":7,
			"componentType":5123,
			"count":279,
			"type":"SCALAR"
		},
		{
			"bufferView":8,
			"componentType":5126,
			"count":76364,
			"max":[
				0.09047568589448929,
				0.13584883511066437,
				0.056529875844717026
			],
			"min":[
				-0.08090568333864212,
				0.001759648323059082,
				-0.05858942121267319
			],
			"type":"VEC3"
		},
		{
			"bufferView":9,
			"componentType":5126,
			"count":76364,
			"type":"VEC3"
		},
		{
			"bufferView":10,
			"componentType":5126,
			"count":76364,
			"type":"VEC2"
		},
		{
			"bufferView":11,
			"componentType":5125,
			"count":76368,
			"type":"SCALAR"
		},
		{
			"bufferView":12,
			"componentType":5126,
			"count":36,
			"max":[
				1,
				0,
				1
			],
			"min":[
				-1,
				0,
				-1
			],
			"type":"VEC3"
		},
		{
			"bufferView":13,
			"componentType":5126,
			"count":36,
			"type":"VEC3"
		},
		{
			"bufferView":14,
			"componentType":5126,
			"count":36,
			"type":"VEC2"
		},
		{
			"bufferView":15,
			"componentType":5123,
			"count":102,
			"type":"SCALAR"
		}
	],
	"bufferViews":[
		{
			"buffer":0,
			"byteLength":34944,
			"byteOffset":0,
			"target":34962
		},
		{
			"buffer":0,
			"byteLength":34944,
			"byteOffset":34944,
			"target":34962
		},
		{
			"buffer":0,
			"byteLength":23296,
			"byteOffset":69888,
			"target":34962
		},
		{
			"buffer":0,
			"byteLength":10536,
			"byteOffset":93184,
			"target":34963
		},
		{
			"buffer":0,
			"byteLength":2148,
			"byteOffset":103720,
			"target":34962
		},
		{
			"buffer":0,
			"byteLength":2148,
			"byteOffset":105868,
			"target":34962
		},
		{
			"buffer":0,
			"byteLength":1432,
			"byteOffset":108016,
			"target":34962
		},
		{
			"buffer":0,
			"byteLength":558,
			"byteOffset":109448,
			"target":34963
		},
		{
			"buffer":0,
			"byteLength":916368,
			"byteOffset":110008,
			"target":34962
		},
		{
			"buffer":0,
			"byteLength":916368,
			"byteOffset":1026376,
			"target":34962
		},
		{
			"buffer":0,
			"byteLength":610912,
			"byteOffset":1942744,
			"target":34962
		},
		{
			"buffer":0,
			"byteLength":305472,
			"byteOffset":2553656,
			"target":34963
		},
		{
			"buffer":0,
			"byteLength":432,
			"byteOffset":2859128,
			"target":34962
		},
		{
			"buffer":0,
			"byteLength":432,
			"byteOffset":2859560,
			"target":34962
		},
		{
			"buffer":0,
			"byteLength":288,
			"byteOffset":2859992,
			"target":34962
		},
		{
			"buffer":0,
			"byteLength":204,
			"byteOffset":2860280,
			"target":34963
		}
	],
	"samplers":[
		{
			"magFilter":9729,
			"minFilter":9987
		}
	],
	"buffers":[
		{
			"byteLength":2860484,
			"uri":"rykard.bin"
		}
	]
}
