{
	"asset":{
		"generator":"Khronos glTF Blender I/O v4.0.44",
		"version":"2.0"
	},
	"scene":0,
	"scenes":[
		{
			"name":"Scene",
			"nodes":[
				0
			]
		}
	],
	"nodes":[
		{
			"mesh":0,
			"name":"Mesh_0",
			"rotation":[
				0,
				0,
				-0.3616763949394226,
				0.9323037266731262
			],
			"translation":[
				-0.11173419654369354,
				-0.018959417939186096,
				0
			]
		}
	],
	"materials":[
		{
			"name":"Material_0.004",
			"normalTexture":{
				"index":0
			},
			"occlusionTexture":{
				"index":1
			},
			"pbrMetallicRoughness":{
				"baseColorTexture":{
					"index":2
				},
				"metallicFactor":0
			}
		}
	],
	"meshes":[
		{
			"name":"Mesh_0",
			"primitives":[
				{
					"attributes":{
						"POSITION":0,
						"NORMAL":1,
						"TEXCOORD_0":2
					},
					"indices":3,
					"material":0
				}
			]
		}
	],
	"textures":[
		{
			"sampler":0,
			"source":0
		},
		{
			"sampler":0,
			"source":1
		},
		{
			"sampler":0,
			"source":2
		}
	],
	"images":[
		{
			"mimeType":"image/jpeg",
			"name":"Image_0.004",
			"uri":"textures/Image_0_004.jpg"
		},
		{
			"mimeType":"image/jpeg",
			"name":"Image_1.004",
			"uri":"textures/Image_1_004.jpg"
		},
		{
			"mimeType":"image/jpeg",
			"name":"Image_2.004",
			"uri":"textures/Image_2_004.jpg"
		}
	],
	"accessors":[
		{
			"bufferView":0,
			"componentType":5126,
			"count":34720,
			"max":[
				0.07614200562238693,
				0.24888087809085846,
				0.032659005373716354
			],
			"min":[
				-0.07718850672245026,
				0.04656244069337845,
				-0.03246982768177986
			],
			"type":"VEC3"
		},
		{
			"bufferView":1,
			"componentType":5126,
			"count":34720,
			"type":"VEC3"
		},
		{
			"bufferView":2,
			"componentType":5126,
			"count":34720,
			"type":"VEC2"
		},
		{
			"bufferView":3,
			"componentType":5123,
			"count":34722,
			"type":"SCALAR"
		}
	],
	"bufferViews":[
		{
			"buffer":0,
			"byteLength":416640,
			"byteOffset":0,
			"target":34962
		},
		{
			"buffer":0,
			"byteLength":416640,
			"byteOffset":416640,
			"target":34962
		},
		{
			"buffer":0,
			"byteLength":277760,
			"byteOffset":833280,
			"target":34962
		},
		{
			"buffer":0,
			"byteLength":69444,
			"byteOffset":1111040,
			"target":34963
		}
	],
	"samplers":[
		{
			"magFilter":9729,
			"minFilter":9987
		}
	],
	"buffers":[
		{
			"byteLength":1180484,
			"uri":"sunfish.bin"
		}
	]
}
