{
	"asset":{
		"generator":"Khronos glTF Blender I/O v4.0.44",
		"version":"2.0"
	},
	"scene":0,
	"scenes":[
		{
			"name":"Scene",
			"nodes":[
				0
			]
		}
	],
	"nodes":[
		{
			"mesh":0,
			"name":"door",
			"translation":[
				-0.0017526783049106598,
				0.0005460395477712154,
				0.00044083595275878906
			]
		}
	],
	"materials":[
		{
			"doubleSided":true,
			"name":"main",
			"pbrMetallicRoughness":{
				"baseColorTexture":{
					"index":0,
					"texCoord":1
				},
				"metallicFactor":0.1340908408164978
			}
		},
		{
			"doubleSided":true,
			"name":"Pipe7",
			"pbrMetallicRoughness":{
				"baseColorTexture":{
					"index":1,
					"texCoord":2
				},
				"metallicFactor":0.163690447807312,
				"roughnessFactor":0.5
			}
		}
	],
	"meshes":[
		{
			"name":"cable.002",
			"primitives":[
				{
					"attributes":{
						"POSITION":0,
						"NORMAL":1,
						"TEXCOORD_0":2,
						"TEXCOORD_1":3,
						"TEXCOORD_2":4
					},
					"indices":5,
					"material":0
				},
				{
					"attributes":{
						"POSITION":6,
						"NORMAL":7,
						"TEXCOORD_0":8,
						"TEXCOORD_1":9,
						"TEXCOORD_2":10
					},
					"indices":11,
					"material":1
				}
			]
		}
	],
	"textures":[
		{
			"sampler":0,
			"source":0
		},
		{
			"sampler":0,
			"source":1
		}
	],
	"images":[
		{
			"mimeType":"image/png",
			"name":"HOUSEBAKE",
			"uri":"textures/HOUSEBAKE.png"
		},
		{
			"mimeType":"image/png",
			"name":"METALBAKED",
			"uri":"textures/METALBAKED.png"
		}
	],
	"accessors":[
		{
			"bufferView":0,
			"componentType":5126,
			"count":120,
			"max":[
				0.11987996101379395,
				0.578947901725769,
				0.013976514339447021
			],
			"min":[
				-0.12905669212341309,
				-0.5380727052688599,
				-0.7370977997779846
			],
			"type":"VEC3"
		},
		{
			"bufferView":1,
			"componentType":5126,
			"count":120,
			"type":"VEC3"
		},
		{
			"bufferView":2,
			"componentType":5126,
			"count":120,
			"type":"VEC2"
		},
		{
			"bufferView":3,
			"componentType":5126,
			"count":120,
			"type":"VEC2"
		},
		{
			"bufferView":4,
			"componentType":5126,
			"count":120,
			"type":"VEC2"
		},
		{
			"bufferView":5,
			"componentType":5123,
			"count":180,
			"type":"SCALAR"
		},
		{
			"bufferView":6,
			"componentType":5126,
			"count":48,
			"max":[
				0.007596254348754883,
				0.1655118465423584,
				-0.60091233253479
			],
			"min":[
				-0.12266397476196289,
				-0.04781615734100342,
				-0.6271073818206787
			],
			"type":"VEC3"
		},
		{
			"bufferView":7,
			"componentType":5126,
			"count":48,
			"type":"VEC3"
		},
		{
			"bufferView":8,
			"componentType":5126,
			"count":48,
			"type":"VEC2"
		},
		{
			"bufferView":9,
			"componentType":5126,
			"count":48,
			"type":"VEC2"
		},
		{
			"bufferView":10,
			"componentType":5126,
			"count":48,
			"type":"VEC2"
		},
		{
			"bufferView":11,
			"componentType":5123,
			"count":84,
			"type":"SCALAR"
		}
	],
	"bufferViews":[
		{
			"buffer":0,
			"byteLength":1440,
			"byteOffset":0,
			"target":34962
		},
		{
			"buffer":0,
			"byteLength":1440,
			"byteOffset":1440,
			"target":34962
		},
		{
			"buffer":0,
			"byteLength":960,
			"byteOffset":2880,
			"target":34962
		},
		{
			"buffer":0,
			"byteLength":960,
			"byteOffset":3840,
			"target":34962
		},
		{
			"buffer":0,
			"byteLength":960,
			"byteOffset":4800,
			"target":34962
		},
		{
			"buffer":0,
			"byteLength":360,
			"byteOffset":5760,
			"target":34963
		},
		{
			"buffer":0,
			"byteLength":576,
			"byteOffset":6120,
			"target":34962
		},
		{
			"buffer":0,
			"byteLength":576,
			"byteOffset":6696,
			"target":34962
		},
		{
			"buffer":0,
			"byteLength":384,
			"byteOffset":7272,
			"target":34962
		},
		{
			"buffer":0,
			"byteLength":384,
			"byteOffset":7656,
			"target":34962
		},
		{
			"buffer":0,
			"byteLength":384,
			"byteOffset":8040,
			"target":34962
		},
		{
			"buffer":0,
			"byteLength":168,
			"byteOffset":8424,
			"target":34963
		}
	],
	"samplers":[
		{
			"magFilter":9729,
			"minFilter":9987
		}
	],
	"buffers":[
		{
			"byteLength":8592,
			"uri":"cabindoor.bin"
		}
	]
}
