{
	"asset":{
		"generator":"Khronos glTF Blender I/O v4.0.44",
		"version":"2.0"
	},
	"scene":0,
	"scenes":[
		{
			"name":"Scene",
			"nodes":[
				0,
				1,
				2,
				3
			]
		}
	],
	"nodes":[
		{
			"mesh":0,
			"name":"Shelves"
		},
		{
			"mesh":1,
			"name":"TVS",
			"rotation":[
				-0.06353948265314102,
				-0.9959292411804199,
				0.00407083285972476,
				0.06380559504032135
			],
			"scale":[
				1.403448224067688,
				1.4034483432769775,
				1.403448224067688
			],
			"translation":[
				-0.013931738212704659,
				-0.3216833174228668,
				-0.04153028875589371
			]
		},
		{
			"mesh":2,
			"name":"Cans",
			"rotation":[
				0.06638015806674957,
				0.6927704811096191,
				-0.709460437297821,
				0.11103451997041702
			],
			"scale":[
				0.317210853099823,
				0.18331731855869293,
				0.2273104041814804
			],
			"translation":[
				-0.311652809381485,
				-0.34301576018333435,
				0.02217315137386322
			]
		},
		{
			"mesh":3,
			"name":"Pipes",
			"rotation":[
				-0.6864309310913086,
				-0.7188208699226379,
				0.07721761614084244,
				0.07840026170015335
			],
			"scale":[
				0.5518577098846436,
				0.5518577098846436,
				0.5518577098846436
			],
			"translation":[
				0.4566023051738739,
				-0.3022269010543823,
				-0.05444874241948128
			]
		}
	],
	"materials":[
		{
			"doubleSided":true,
			"name":"woodbox",
			"pbrMetallicRoughness":{
				"baseColorTexture":{
					"index":0,
					"texCoord":1
				},
				"metallicFactor":0
			}
		},
		{
			"doubleSided":true,
			"name":"Pipe7",
			"pbrMetallicRoughness":{
				"baseColorTexture":{
					"index":1,
					"texCoord":1
				},
				"metallicFactor":0
			}
		},
		{
			"doubleSided":true,
			"name":"Material.083",
			"pbrMetallicRoughness":{
				"baseColorTexture":{
					"index":2,
					"texCoord":1
				},
				"metallicFactor":0
			}
		},
		{
			"doubleSided":true,
			"name":"Material.002",
			"pbrMetallicRoughness":{
				"baseColorTexture":{
					"index":3,
					"texCoord":1
				},
				"metallicFactor":0
			}
		}
	],
	"meshes":[
		{
			"name":"woodbox",
			"primitives":[
				{
					"attributes":{
						"POSITION":0,
						"NORMAL":1,
						"TEXCOORD_0":2,
						"TEXCOORD_1":3
					},
					"indices":4,
					"material":0
				}
			]
		},
		{
			"name":"KB3D_CBD_PropTrash_D_Main.004",
			"primitives":[
				{
					"attributes":{
						"POSITION":5,
						"NORMAL":6,
						"TEXCOORD_0":7,
						"TEXCOORD_1":8
					},
					"indices":9,
					"material":1
				}
			]
		},
		{
			"name":"Cube.002",
			"primitives":[
				{
					"attributes":{
						"POSITION":10,
						"NORMAL":11,
						"TEXCOORD_0":12,
						"TEXCOORD_1":13
					},
					"indices":14,
					"material":2
				}
			]
		},
		{
			"name":"BezierCurve.002",
			"primitives":[
				{
					"attributes":{
						"POSITION":15,
						"NORMAL":16,
						"TEXCOORD_0":17,
						"TEXCOORD_1":18
					},
					"indices":19,
					"material":3
				}
			]
		}
	],
	"textures":[
		{
			"sampler":0,
			"source":0
		},
		{
			"sampler":0,
			"source":1
		},
		{
			"sampler":0,
			"source":2
		},
		{
			"sampler":0,
			"source":3
		}
	],
	"images":[
		{
			"mimeType":"image/png",
			"name":"CAROUSEL WOOD BAKED",
			"uri":"textures/CAROUSEL%20WOOD%20BAKED.png"
		},
		{
			"mimeType":"image/png",
			"name":"CAROUSEL METAL BAKED",
			"uri":"textures/CAROUSEL%20METAL%20BAKED.png"
		},
		{
			"mimeType":"image/png",
			"name":"CAROUSEL CANS BAKED",
			"uri":"textures/CAROUSEL%20CANS%20BAKED.png"
		},
		{
			"mimeType":"image/png",
			"name":"CAROUSEL PIPE BAKED",
			"uri":"textures/CAROUSEL%20PIPE%20BAKED.png"
		}
	],
	"accessors":[
		{
			"bufferView":0,
			"componentType":5126,
			"count":4340,
			"max":[
				1.0417824983596802,
				0.9728791117668152,
				1.1458516120910645
			],
			"min":[
				-1.0383483171463013,
				-1.3120231628417969,
				-0.997698187828064
			],
			"type":"VEC3"
		},
		{
			"bufferView":1,
			"componentType":5126,
			"count":4340,
			"type":"VEC3"
		},
		{
			"bufferView":2,
			"componentType":5126,
			"count":4340,
			"type":"VEC2"
		},
		{
			"bufferView":3,
			"componentType":5126,
			"count":4340,
			"type":"VEC2"
		},
		{
			"bufferView":4,
			"componentType":5123,
			"count":7104,
			"type":"SCALAR"
		},
		{
			"bufferView":5,
			"componentType":5126,
			"count":153519,
			"max":[
				0.8174300193786621,
				0.9392147660255432,
				0.7865248322486877
			],
			"min":[
				-0.8374678492546082,
				-0.6457797884941101,
				-0.7916346192359924
			],
			"type":"VEC3"
		},
		{
			"bufferView":6,
			"componentType":5126,
			"count":153519,
			"type":"VEC3"
		},
		{
			"bufferView":7,
			"componentType":5126,
			"count":153519,
			"type":"VEC2"
		},
		{
			"bufferView":8,
			"componentType":5126,
			"count":153519,
			"type":"VEC2"
		},
		{
			"bufferView":9,
			"componentType":5125,
			"count":331398,
			"type":"SCALAR"
		},
		{
			"bufferView":10,
			"componentType":5126,
			"count":25461,
			"max":[
				1.7438359260559082,
				6.5030317306518555,
				4.255795478820801
			],
			"min":[
				-3.405959129333496,
				-4.869270324707031,
				-3.892859697341919
			],
			"type":"VEC3"
		},
		{
			"bufferView":11,
			"componentType":5126,
			"count":25461,
			"type":"VEC3"
		},
		{
			"bufferView":12,
			"componentType":5126,
			"count":25461,
			"type":"VEC2"
		},
		{
			"bufferView":13,
			"componentType":5126,
			"count":25461,
			"type":"VEC2"
		},
		{
			"bufferView":14,
			"componentType":5123,
			"count":59448,
			"type":"SCALAR"
		},
		{
			"bufferView":15,
			"componentType":5126,
			"count":5806,
			"max":[
				2.0293216705322266,
				0.7229416370391846,
				1.4790549278259277
			],
			"min":[
				-1.5782142877578735,
				-2.1274607181549072,
				-1.7386744022369385
			],
			"type":"VEC3"
		},
		{
			"bufferView":16,
			"componentType":5126,
			"count":5806,
			"type":"VEC3"
		},
		{
			"bufferView":17,
			"componentType":5126,
			"count":5806,
			"type":"VEC2"
		},
		{
			"bufferView":18,
			"componentType":5126,
			"count":5806,
			"type":"VEC2"
		},
		{
			"bufferView":19,
			"componentType":5123,
			"count":21264,
			"type":"SCALAR"
		}
	],
	"bufferViews":[
		{
			"buffer":0,
			"byteLength":52080,
			"byteOffset":0,
			"target":34962
		},
		{
			"buffer":0,
			"byteLength":52080,
			"byteOffset":52080,
			"target":34962
		},
		{
			"buffer":0,
			"byteLength":34720,
			"byteOffset":104160,
			"target":34962
		},
		{
			"buffer":0,
			"byteLength":34720,
			"byteOffset":138880,
			"target":34962
		},
		{
			"buffer":0,
			"byteLength":14208,
			"byteOffset":173600,
			"target":34963
		},
		{
			"buffer":0,
			"byteLength":1842228,
			"byteOffset":187808,
			"target":34962
		},
		{
			"buffer":0,
			"byteLength":1842228,
			"byteOffset":2030036,
			"target":34962
		},
		{
			"buffer":0,
			"byteLength":1228152,
			"byteOffset":3872264,
			"target":34962
		},
		{
			"buffer":0,
			"byteLength":1228152,
			"byteOffset":5100416,
			"target":34962
		},
		{
			"buffer":0,
			"byteLength":1325592,
			"byteOffset":6328568,
			"target":34963
		},
		{
			"buffer":0,
			"byteLength":305532,
			"byteOffset":7654160,
			"target":34962
		},
		{
			"buffer":0,
			"byteLength":305532,
			"byteOffset":7959692,
			"target":34962
		},
		{
			"buffer":0,
			"byteLength":203688,
			"byteOffset":8265224,
			"target":34962
		},
		{
			"buffer":0,
			"byteLength":203688,
			"byteOffset":8468912,
			"target":34962
		},
		{
			"buffer":0,
			"byteLength":118896,
			"byteOffset":8672600,
			"target":34963
		},
		{
			"buffer":0,
			"byteLength":69672,
			"byteOffset":8791496,
			"target":34962
		},
		{
			"buffer":0,
			"byteLength":69672,
			"byteOffset":8861168,
			"target":34962
		},
		{
			"buffer":0,
			"byteLength":46448,
			"byteOffset":8930840,
			"target":34962
		},
		{
			"buffer":0,
			"byteLength":46448,
			"byteOffset":8977288,
			"target":34962
		},
		{
			"buffer":0,
			"byteLength":42528,
			"byteOffset":9023736,
			"target":34963
		}
	],
	"samplers":[
		{
			"magFilter":9729,
			"minFilter":9987
		}
	],
	"buffers":[
		{
			"byteLength":9066264,
			"uri":"carousel.bin"
		}
	]
}
