{
	"asset":{
		"generator":"Khronos glTF Blender I/O v4.0.44",
		"version":"2.0"
	},
	"scene":0,
	"scenes":[
		{
			"name":"Scene",
			"nodes":[
				0,
				1
			]
		}
	],
	"nodes":[
		{
			"mesh":0,
			"name":"Mesh_0.002",
			"rotation":[
				0.30022066831588745,
				0.644599974155426,
				-0.17190659046173096,
				0.6817672252655029
			],
			"scale":[
				1.1589592695236206,
				1.158959150314331,
				1.1589592695236206
			],
			"translation":[
				-0.046836577355861664,
				-0.0361030250787735,
				0.01368715800344944
			]
		},
		{
			"mesh":1,
			"name":"Plane",
			"rotation":[
				0.3688731789588928,
				0.6144510507583618,
				-0.0534222275018692,
				0.6953621506690979
			],
			"scale":[
				0.4329257905483246,
				0.4329257905483246,
				0.43292585015296936
			],
			"translation":[
				-0.017547667026519775,
				-0.006040176376700401,
				0.023856181651353836
			]
		}
	],
	"materials":[
		{
			"name":"Material_0.002",
			"normalTexture":{
				"index":0
			},
			"occlusionTexture":{
				"index":1
			},
			"pbrMetallicRoughness":{
				"baseColorTexture":{
					"index":2
				},
				"metallicFactor":0
			}
		},
		{
			"doubleSided":true,
			"name":"Material_0",
			"normalTexture":{
				"index":3
			},
			"occlusionTexture":{
				"index":4
			},
			"pbrMetallicRoughness":{
				"baseColorTexture":{
					"index":5
				},
				"metallicFactor":0
			}
		}
	],
	"meshes":[
		{
			"name":"Mesh_0.002",
			"primitives":[
				{
					"attributes":{
						"POSITION":0,
						"NORMAL":1,
						"TEXCOORD_0":2
					},
					"indices":3,
					"material":0
				}
			]
		},
		{
			"name":"Plane",
			"primitives":[
				{
					"attributes":{
						"POSITION":4,
						"NORMAL":5,
						"TEXCOORD_0":6
					},
					"indices":7,
					"material":1
				}
			]
		}
	],
	"textures":[
		{
			"sampler":0,
			"source":0
		},
		{
			"sampler":0,
			"source":1
		},
		{
			"sampler":0,
			"source":2
		},
		{
			"sampler":0,
			"source":3
		},
		{
			"sampler":0,
			"source":4
		},
		{
			"sampler":0,
			"source":5
		}
	],
	"images":[
		{
			"mimeType":"image/jpeg",
			"name":"Image_0",
			"uri":"textures/Image_0.jpg"
		},
		{
			"mimeType":"image/jpeg",
			"name":"Image_1",
			"uri":"textures/Image_1.jpg"
		},
		{
			"mimeType":"image/jpeg",
			"name":"Image_2",
			"uri":"textures/Image_2.jpg"
		},
		{
			"mimeType":"image/jpeg",
			"name":"Image_0",
			"uri":"textures/Image_0-1.jpg"
		},
		{
			"mimeType":"image/jpeg",
			"name":"Image_1",
			"uri":"textures/Image_1-1.jpg"
		},
		{
			"mimeType":"image/png",
			"name":"Image_2",
			"uri":"textures/Image_2.png"
		}
	],
	"accessors":[
		{
			"bufferView":0,
			"componentType":5126,
			"count":26596,
			"max":[
				0.06575658917427063,
				0.07923170179128647,
				0.08525621145963669
			],
			"min":[
				-0.06730310618877411,
				0.02796250768005848,
				-0.07546631246805191
			],
			"type":"VEC3"
		},
		{
			"bufferView":1,
			"componentType":5126,
			"count":26596,
			"type":"VEC3"
		},
		{
			"bufferView":2,
			"componentType":5126,
			"count":26596,
			"type":"VEC2"
		},
		{
			"bufferView":3,
			"componentType":5123,
			"count":26598,
			"type":"SCALAR"
		},
		{
			"bufferView":4,
			"componentType":5126,
			"count":36,
			"max":[
				1,
				0,
				1
			],
			"min":[
				-1,
				0,
				-1
			],
			"type":"VEC3"
		},
		{
			"bufferView":5,
			"componentType":5126,
			"count":36,
			"type":"VEC3"
		},
		{
			"bufferView":6,
			"componentType":5126,
			"count":36,
			"type":"VEC2"
		},
		{
			"bufferView":7,
			"componentType":5123,
			"count":102,
			"type":"SCALAR"
		}
	],
	"bufferViews":[
		{
			"buffer":0,
			"byteLength":319152,
			"byteOffset":0,
			"target":34962
		},
		{
			"buffer":0,
			"byteLength":319152,
			"byteOffset":319152,
			"target":34962
		},
		{
			"buffer":0,
			"byteLength":212768,
			"byteOffset":638304,
			"target":34962
		},
		{
			"buffer":0,
			"byteLength":53196,
			"byteOffset":851072,
			"target":34963
		},
		{
			"buffer":0,
			"byteLength":432,
			"byteOffset":904268,
			"target":34962
		},
		{
			"buffer":0,
			"byteLength":432,
			"byteOffset":904700,
			"target":34962
		},
		{
			"buffer":0,
			"byteLength":288,
			"byteOffset":905132,
			"target":34962
		},
		{
			"buffer":0,
			"byteLength":204,
			"byteOffset":905420,
			"target":34963
		}
	],
	"samplers":[
		{
			"magFilter":9729,
			"minFilter":9987
		}
	],
	"buffers":[
		{
			"byteLength":905624,
			"uri":"earwig.bin"
		}
	]
}
